# xmcd
#
# Track frame offsets:
#	150
#	14591
#	29506
#	50492
#	66993
#	84582
#
# Disc length: 1343 seconds
#
# Revision: 0
# Processed by: cddbd v1.5.2PL0 Copyright (c) Steve Scherf et al.
# Submitted via: audiograbber 1.83.01
#
DISCID=4e053d06
DTITLE=Mark McNeil - Greetings From Hamilton Ontario Canada
DYEAR=2009
DGENRE=Blues
TTITLE0=Early Bird
TTITLE1=Hubcap Man
TTITLE2=Blue Collar Blues
TTITLE3=Gangsters in Love
TTITLE4=Mourning Dove
TTITLE5=High Winds on the Skyway
EXTD=
EXTT0=
EXTT1=
EXTT2=
EXTT3=
EXTT4=
EXTT5=
PLAYORDER=
